<svg xmlns="http://www.w3.org/2000/svg" viewBox="0 0 410.3896231496914 100" preserveAspectRatio="xMidYMid meet" id="abefggag"><defs id="SvgjsDefs5702"/><g id="SvgjsG5703" featurekey="rootContainer" transform="matrix(1,0,0,1,0,0)" fill="#111"><rect y="0" height="1" width="1" opacity="0"/><rect y="95" width="410" height="5"/></g><g id="SvgjsG5704" featurekey="nameLeftFeature-0" transform="matrix(1.2856593132019043,0,0,1.2856593132019043,-3.7019270617488607,17.57208856367261)" fill="#111"><path d="M23.456 14.744 c1.8287 1.8296 2.743 4.034 2.743 6.6172 c0 2.5551 -0.91432 4.7608 -2.743 6.6164 c-1.8287 1.8025 -4.0212 2.7038 -6.576 2.7038 l-9.3603 0 l0 9.3166 l-4.64 0 l0 -13.999 l14 0 c1.264 0 2.3532 -0.45628 3.2676 -1.3715 c0.91432 -0.91348 1.3715 -2.0026 1.3715 -3.2676 c0 -1.2902 -0.4572 -2.3934 -1.3715 -3.3077 s-2.0035 -1.3715 -3.2676 -1.3715 l-9.3603 0 l-4.64 -4.68 l14 0 c2.5551 0 4.7468 0.91524 6.576 2.744 z M48.224000000000004 26.605 c-1.076 1.5604 -2.4475 2.6765 -4.1136 3.3488 l5.7692 10.046 l-5.3664 0 l-8.1312 -14.018 l4.1776 0.018359 c1.264 0 2.3532 -0.4572 3.2684 -1.3715 c0.91348 -0.91432 1.3715 -2.0175 1.3715 -3.3086 c0 -1.264 -0.4572 -2.3541 -1.3715 -3.2684 c-0.91524 -0.91432 -2.0044 -1.3715 -3.2684 -1.3715 l-9.5736 0 l-2.7151 -4.68 l12.288 0 c2.5551 0 4.7468 0.91524 6.5752 2.744 c1.8296 1.8296 2.7439 4.0212 2.7439 6.576 c0 1.9362 -0.5516 3.6985 -1.6539 5.2852 z M77.864 16.116 c2.7702 2.744 4.1556 6.0396 4.1564 9.8848 c0 3.9004 -1.3855 7.196 -4.1556 9.8848 c-2.7177 2.744 -6.0116 4.1156 -9.8848 4.1156 s-7.1688 -1.3724 -9.8848 -4.1156 c-2.744 -2.7168 -4.1156 -6.0116 -4.1156 -9.8848 c0 -3.8462 1.3715 -7.1408 4.1156 -9.8848 c2.6897 -2.744 5.9844 -4.1156 9.8848 -4.1156 c3.8724 0 7.1672 1.3724 9.884 4.1156 z M74.556 32.6168 c1.8287 -1.8558 2.7431 -4.0604 2.7431 -6.6164 c0 -2.5542 -0.91432 -4.7456 -2.743 -6.5752 s-4.0212 -2.7439 -6.576 -2.7439 s-4.7608 0.91432 -6.6164 2.7439 c-1.8025 1.8287 -2.7038 4.02 -2.7038 6.5752 s0.90124 4.7608 2.7038 6.6164 c1.8558 1.8025 4.0604 2.7038 6.6164 2.7038 c2.5542 0 4.7468 -0.90124 6.576 -2.7038 z M86.13 12 l13.999 0 l0 4.681 l-9.3201 0 l0 23.319 l-4.6793 0 l0 -28 z M124.08399999999999 16.116 c2.7702 2.744 4.1556 6.0396 4.1564 9.8848 c0 3.9004 -1.3855 7.196 -4.1556 9.8848 c-2.7177 2.744 -6.0116 4.1156 -9.8848 4.1156 s-7.1688 -1.3724 -9.8848 -4.1156 c-2.744 -2.7168 -4.1156 -6.0116 -4.1156 -9.8848 c0 -3.8462 1.3715 -7.1408 4.1156 -9.8848 c2.6897 -2.744 5.9844 -4.1156 9.8848 -4.1156 c3.8724 0 7.1672 1.3724 9.884 4.1156 z M120.776 32.6168 c1.8287 -1.8558 2.7431 -4.0604 2.7431 -6.6164 c0 -2.5542 -0.91432 -4.7456 -2.743 -6.5752 s-4.0212 -2.7439 -6.576 -2.7439 s-4.7608 0.91432 -6.6164 2.7439 c-1.8025 1.8287 -2.7038 4.02 -2.7038 6.5752 s0.90124 4.7608 2.7038 6.6164 c1.8558 1.8025 4.0604 2.7038 6.6164 2.7038 c2.5542 0 4.7468 -0.90124 6.576 -2.7038 z M150.963 12 l4.6732 0 l0 28.001 l-23.286 -20.923 l0 -7.0779 l18.613 16.76 l0 -16.76 z"/></g><g id="SvgjsG5705" featurekey="inlineSymbolFeature-0" transform="matrix(1.3685030937194824,0,0,1.3685030937194824,210.58544545453228,15.665334491494331)" fill="#111"><g xmlns="http://www.w3.org/2000/svg"><path fill="#111" d="M25.004,49.057c-5.756,0-8.862-12.199-8.862-23.676s3.105-23.675,8.862-23.675   c5.755,0,8.861,12.198,8.861,23.675S30.76,49.057,25.004,49.057z M25.004,3.706c-3.246,0-6.862,8.901-6.862,21.675   c0,12.774,3.616,21.676,6.862,21.676c3.244,0,6.861-8.902,6.861-21.676C31.865,12.607,28.248,3.706,25.004,3.706z"/><path fill="#111" d="M39.83,39.607c-4.951,0-12.15-2.449-19.257-6.553C10.634,27.316,1.623,18.527,4.5,13.543   c0.629-1.09,2.125-2.389,5.676-2.389c4.952,0,12.151,2.45,19.257,6.553c5.34,3.083,9.953,6.713,12.99,10.223   c3.314,3.828,4.381,7.041,3.082,9.289C44.877,38.309,43.382,39.607,39.83,39.607z M10.176,13.154c-2.026,0-3.427,0.493-3.944,1.389   c-1.623,2.811,4.278,10.393,15.341,16.779c6.714,3.877,13.71,6.285,18.257,6.285c2.026,0,3.428-0.493,3.943-1.389   c0.798-1.381-0.271-3.99-2.861-6.98c-2.896-3.345-7.328-6.825-12.479-9.799C21.72,15.563,14.724,13.154,10.176,13.154z"/><path fill="#111" d="M10.177,39.607c-3.552,0-5.047-1.299-5.677-2.389c-1.298-2.248-0.232-5.461,3.083-9.289   c3.038-3.51,7.651-7.14,12.99-10.223c7.106-4.103,14.306-6.553,19.257-6.553c3.552,0,5.047,1.299,5.676,2.389   c1.299,2.248,0.232,5.46-3.082,9.289c-3.037,3.51-7.65,7.14-12.99,10.223C22.327,37.158,15.128,39.607,10.177,39.607z    M39.83,13.154c-4.547,0-11.543,2.408-18.257,6.285c-5.151,2.974-9.583,6.454-12.479,9.799c-2.589,2.991-3.659,5.6-2.862,6.98   c0.517,0.896,1.918,1.389,3.944,1.389c4.547,0,11.543-2.408,18.257-6.285c5.151-2.975,9.583-6.454,12.479-9.799   c2.59-2.991,3.659-5.6,2.862-6.98C43.258,13.647,41.857,13.154,39.83,13.154z"/><circle fill="#111" cx="24.938" cy="25.271" r="4.996"/></g></g><g id="SvgjsG5706" featurekey="nameRightFeature-0" transform="matrix(1.285673975944519,0,0,1.285673975944519,274.9837241504459,17.572142520253365)" fill="#111"><path d="M34.744 26.605 c-1.076 1.5604 -2.4475 2.6765 -4.1136 3.3488 l5.7692 10.046 l-5.3664 0 l-8.1312 -14.018 l4.1776 0.018359 c1.264 0 2.3532 -0.4572 3.2684 -1.3715 c0.91348 -0.91432 1.3715 -2.0175 1.3715 -3.3086 c0 -1.264 -0.4572 -2.3541 -1.3715 -3.2684 c-0.91524 -0.91432 -2.0044 -1.3715 -3.2684 -1.3715 l-9.5736 0 l-2.7151 -4.68 l12.288 0 c2.5551 0 4.7468 0.91524 6.5752 2.744 c1.8296 1.8296 2.7439 4.0212 2.7439 6.576 c0 1.9362 -0.5516 3.6985 -1.6539 5.2852 z M59.14 28.34 l4.6792 -0.00097656 c0 3.2274 -1.1434 5.9852 -3.4293 8.2712 c-2.3139 2.2596 -5.07 3.389 -8.2712 3.389 c-3.174 0 -5.9172 -1.1294 -8.23 -3.389 c-2.2596 -2.313 -3.389 -5.07 -3.389 -8.2712 l0 -16.339 l4.64 0 l0 16.34 c0 1.9371 0.67224 3.5779 2.0175 4.9224 c1.3724 1.3715 3.0263 2.0577 4.9624 2.0577 c1.9371 0 3.5779 -0.6862 4.9224 -2.0577 c1.3978 -1.3715 2.098 -3.0114 2.098 -4.9224 z M84.79 26.082 c1.6128 1.5866 2.4196 3.5098 2.4205 5.7684 c0 2.2334 -0.80684 4.1556 -2.4205 5.77 c-1.5883 1.5875 -3.5106 2.3803 -5.77 2.3803 l0 -4.6802 c0.4834 0 0.94144 -0.087424 1.3715 -0.26312 c0.43008 -0.17394 0.80684 -0.41608 1.1294 -0.72556 c0.32344 -0.30945 0.57084 -0.68008 0.74652 -1.1102 c0.17394 -0.43008 0.26223 -0.88728 0.26223 -1.3715 c0 -0.9406 -0.34965 -1.7606 -1.049 -2.4608 c-0.67224 -0.69928 -1.4922 -1.049 -2.4608 -1.049 l-6.9792 0 c-2.2596 0 -4.1836 -0.79372 -5.7692 -2.3803 c-1.5883 -1.5866 -2.3812 -3.5228 -2.3812 -5.8096 c0 -2.2326 0.79372 -4.1416 2.3812 -5.7292 c1.5604 -1.6137 3.4835 -2.4214 5.7692 -2.4214 l0 4.681 c-0.4834 0 -0.94144 0.086524 -1.3715 0.26223 s-0.80684 0.42396 -1.1294 0.74652 c-0.32254 0.32254 -0.57168 0.70016 -0.74652 1.1302 s-0.26226 0.87416 -0.26226 1.3304 c0 0.96856 0.33566 1.8025 1.0088 2.5018 c0.67132 0.69928 1.5053 1.0481 2.5009 1.0481 l6.9792 0 c2.2596 0 4.1828 0.7946 5.7704 2.3812 z M91.32 12 l13.999 0 l0 4.681 l-9.3201 0 l0 23.319 l-4.6793 0 l0 -28 z"/></g></svg>